<svg aria-hidden="true" style="position: absolute; width: 0; height: 0; overflow: hidden;" version="1.1" xmlns="http://www.w3.org/2000/svg" xmlns:xlink="http://www.w3.org/1999/xlink">
<defs>
<symbol id="icon-bolt-solid" viewBox="0 0 20 32">
<path d="M18.5 10h-7.213l2.662-8.113c0.25-0.95-0.469-1.887-1.45-1.887h-9c-0.75 0-1.388 0.556-1.487 1.3l-2 15c-0.119 0.9 0.581 1.7 1.488 1.7h7.419l-2.881 12.156c-0.225 0.95 0.5 1.844 1.456 1.844 0.525 0 1.025-0.275 1.3-0.75l11-19c0.581-0.994-0.137-2.25-1.294-2.25z"></path>
</symbol>
<symbol id="icon-cloud-download-alt-solid" viewBox="0 0 40 32">
<path d="M33.6 14.162c0.256-0.669 0.4-1.4 0.4-2.162 0-3.313-2.688-6-6-6-1.231 0-2.381 0.375-3.331 1.013-1.731-3-4.963-5.013-8.669-5.013-5.525 0-10 4.475-10 10 0 0.169 0.006 0.338 0.013 0.506-3.5 1.231-6.013 4.569-6.013 8.494 0 4.969 4.031 9 9 9h23c4.419 0 8-3.581 8-8 0-3.869-2.75-7.1-6.4-7.838zM25.294 19.706l-6.588 6.588c-0.387 0.387-1.025 0.387-1.413 0l-6.588-6.587c-0.631-0.631-0.181-1.706 0.706-1.706h4.088v-7c0-0.55 0.45-1 1-1h3c0.55 0 1 0.45 1 1v7h4.088c0.887 0 1.337 1.075 0.706 1.706z"></path>
</symbol>
<symbol id="icon-keyboard-regular" viewBox="0 0 36 32">
<path d="M33 4h-30c-1.657 0-3 1.343-3 3v18c0 1.657 1.343 3 3 3h30c1.657 0 3-1.343 3-3v-18c0-1.657-1.343-3-3-3zM33.5 25c0 0.276-0.224 0.5-0.5 0.5h-30c-0.276 0-0.5-0.224-0.5-0.5v-18c0-0.276 0.224-0.5 0.5-0.5h30c0.276 0 0.5 0.224 0.5 0.5v18zM10.625 16.875v-1.75c0-0.414-0.336-0.75-0.75-0.75h-1.75c-0.414 0-0.75 0.336-0.75 0.75v1.75c0 0.414 0.336 0.75 0.75 0.75h1.75c0.414 0 0.75-0.336 0.75-0.75zM16.625 16.875v-1.75c0-0.414-0.336-0.75-0.75-0.75h-1.75c-0.414 0-0.75 0.336-0.75 0.75v1.75c0 0.414 0.336 0.75 0.75 0.75h1.75c0.414 0 0.75-0.336 0.75-0.75zM22.625 16.875v-1.75c0-0.414-0.336-0.75-0.75-0.75h-1.75c-0.414 0-0.75 0.336-0.75 0.75v1.75c0 0.414 0.336 0.75 0.75 0.75h1.75c0.414 0 0.75-0.336 0.75-0.75zM28.625 16.875v-1.75c0-0.414-0.336-0.75-0.75-0.75h-1.75c-0.414 0-0.75 0.336-0.75 0.75v1.75c0 0.414 0.336 0.75 0.75 0.75h1.75c0.414 0 0.75-0.336 0.75-0.75zM7.625 22v-1.75c0-0.414-0.336-0.75-0.75-0.75h-1.75c-0.414 0-0.75 0.336-0.75 0.75v1.75c0 0.414 0.336 0.75 0.75 0.75h1.75c0.414 0 0.75-0.336 0.75-0.75zM31.625 22v-1.75c0-0.414-0.336-0.75-0.75-0.75h-1.75c-0.414 0-0.75 0.336-0.75 0.75v1.75c0 0.414 0.336 0.75 0.75 0.75h1.75c0.414 0 0.75-0.336 0.75-0.75zM7.625 11.75v-1.75c0-0.414-0.336-0.75-0.75-0.75h-1.75c-0.414 0-0.75 0.336-0.75 0.75v1.75c0 0.414 0.336 0.75 0.75 0.75h1.75c0.414 0 0.75-0.336 0.75-0.75zM13.625 11.75v-1.75c0-0.414-0.336-0.75-0.75-0.75h-1.75c-0.414 0-0.75 0.336-0.75 0.75v1.75c0 0.414 0.336 0.75 0.75 0.75h1.75c0.414 0 0.75-0.336 0.75-0.75zM19.625 11.75v-1.75c0-0.414-0.336-0.75-0.75-0.75h-1.75c-0.414 0-0.75 0.336-0.75 0.75v1.75c0 0.414 0.336 0.75 0.75 0.75h1.75c0.414 0 0.75-0.336 0.75-0.75zM25.625 11.75v-1.75c0-0.414-0.336-0.75-0.75-0.75h-1.75c-0.414 0-0.75 0.336-0.75 0.75v1.75c0 0.414 0.336 0.75 0.75 0.75h1.75c0.414 0 0.75-0.336 0.75-0.75zM31.625 11.75v-1.75c0-0.414-0.336-0.75-0.75-0.75h-1.75c-0.414 0-0.75 0.336-0.75 0.75v1.75c0 0.414 0.336 0.75 0.75 0.75h1.75c0.414 0 0.75-0.336 0.75-0.75zM25.5 21.625v-1c0-0.414-0.336-0.75-0.75-0.75h-13.5c-0.414 0-0.75 0.336-0.75 0.75v1c0 0.414 0.336 0.75 0.75 0.75h13.5c0.414 0 0.75-0.336 0.75-0.75z"></path>
</symbol>
<symbol id="icon-lightbulb-regular" viewBox="0 0 22 32">
<path d="M11 5c-3.309 0-6 2.691-6 6 0 0.553 0.447 1 1 1s1-0.447 1-1c0-2.206 1.795-4 4-4 0.553 0 1-0.447 1-1s-0.447-1-1-1zM6.004 28.698c0 0.197 0.058 0.389 0.168 0.552l1.532 2.303c0.186 0.279 0.498 0.446 0.833 0.446h4.928c0.335 0 0.648-0.168 0.832-0.446l1.532-2.303c0.109-0.164 0.167-0.356 0.168-0.552l0.003-2.699h-9.998l0.003 2.699zM11 0c-6.393 0-11 5.186-11 11 0 2.773 1.028 5.303 2.723 7.236 1.040 1.187 2.671 3.675 3.276 5.76v0.004h3v-0.008c-0.001-0.298-0.045-0.594-0.134-0.879-0.349-1.113-1.426-4.048-3.886-6.854-1.284-1.464-1.97-3.322-1.976-5.259-0.013-4.603 3.729-8 7.997-8 4.411 0 8 3.589 8 8 0 1.936-0.703 3.803-1.978 5.259-2.444 2.788-3.526 5.717-3.881 6.841-0.088 0.267-0.138 0.574-0.139 0.894v0.006h3v-0.003c0.605-2.086 2.236-4.574 3.276-5.76 1.694-1.934 2.722-4.464 2.722-7.237 0-6.075-4.925-11-11-11z"></path>
</symbol>
<symbol id="icon-facebook-f" viewBox="0 0 20 32">
<path d="M17.446 18l0.889-5.791h-5.557v-3.758c0-1.584 0.776-3.129 3.265-3.129h2.526v-4.931s-2.293-0.391-4.484-0.391c-4.576 0-7.567 2.774-7.567 7.795v4.414h-5.087v5.791h5.087v14h6.261v-14z"></path>
</symbol>
<symbol id="icon-google-plus-g" viewBox="0 0 40 32">
<path d="M24.129 14.281c0.115 0.606 0.196 1.211 0.196 1.997 0 6.86-4.6 11.722-11.525 11.722-6.63 0-12-5.37-12-12s5.37-12 12-12c3.241 0 5.943 1.179 8.038 3.143l-3.258 3.127c-0.884-0.851-2.439-1.85-4.78-1.85-4.093 0-7.433 3.389-7.433 7.58s3.34 7.58 7.433 7.58c4.748 0 6.532-3.422 6.81-5.173h-6.81v-4.126h11.329zM35.717 14.683v-3.483h-3.5v3.483h-3.483v3.5h3.483v3.483h3.5v-3.483h3.483v-3.5h-3.483z"></path>
</symbol>
<symbol id="icon-instagram-square" viewBox="0 0 28 32">
<path d="M14 12.666c-1.841 0.001-3.332 1.493-3.332 3.334s1.493 3.334 3.334 3.334 3.334-1.493 3.334-3.334v0c-0.001-1.841-1.494-3.333-3.335-3.334h-0zM21.794 10.104c-0.351-0.872-1.029-1.55-1.878-1.893l-0.023-0.008c-1.313-0.518-4.438-0.402-5.894-0.402s-4.578-0.121-5.894 0.402c-0.872 0.351-1.55 1.029-1.893 1.878l-0.008 0.023c-0.518 1.313-0.402 4.441-0.402 5.896s-0.116 4.579 0.404 5.896c0.351 0.872 1.029 1.55 1.878 1.893l0.023 0.008c1.313 0.518 4.438 0.402 5.894 0.402s4.577 0.121 5.894-0.402c0.872-0.351 1.55-1.029 1.893-1.878l0.008-0.023c0.522-1.313 0.402-4.441 0.402-5.896s0.12-4.579-0.402-5.896zM14 21.125c-2.83 0-5.125-2.295-5.125-5.125s2.295-5.125 5.125-5.125c2.83 0 5.125 2.295 5.125 5.125v0c0 0.002 0 0.004 0 0.006 0 2.827-2.292 5.119-5.119 5.119-0.002 0-0.004 0-0.007 0h0zM19.336 11.856c-0 0-0 0-0.001 0-0.661 0-1.196-0.536-1.196-1.196s0.536-1.196 1.196-1.196c0.661 0 1.196 0.536 1.196 1.196v0c0 0.002 0 0.003 0 0.005 0 0.659-0.534 1.193-1.193 1.194h-0zM25 2h-22c-1.657 0-3 1.343-3 3v0 22c0 1.657 1.343 3 3 3v0h22c1.657 0 3-1.343 3-3v0-22c0-1.657-1.343-3-3-3v0zM23.93 20.125c-0.081 1.602-0.446 3.021-1.616 4.188s-2.587 1.539-4.188 1.616c-1.651 0.093-6.599 0.093-8.25 0-1.602-0.081-3.016-0.447-4.188-1.616s-1.539-2.589-1.616-4.188c-0.093-1.651-0.093-6.601 0-8.25 0.081-1.602 0.442-3.021 1.616-4.188s2.592-1.535 4.188-1.611c1.651-0.093 6.599-0.093 8.25 0 1.602 0.081 3.021 0.447 4.188 1.616s1.539 2.589 1.616 4.191c0.093 1.645 0.093 6.59 0 8.242z"></path>
</symbol>
<symbol id="icon-pinterest-square" viewBox="0 0 28 32">
<path d="M28 5v22c0 1.656-1.344 3-3 3h-15.35c0.613-1.025 1.4-2.5 1.713-3.706 0.188-0.719 0.956-3.65 0.956-3.65 0.5 0.956 1.963 1.762 3.519 1.762 4.631 0 7.963-4.256 7.963-9.544 0-5.069-4.137-8.863-9.463-8.863-6.625 0-10.137 4.444-10.137 9.287 0 2.25 1.2 5.050 3.112 5.944 0.294 0.137 0.444 0.075 0.513-0.206 0.050-0.212 0.313-1.256 0.425-1.738 0.037-0.156 0.019-0.288-0.106-0.438-0.631-0.769-1.144-2.181-1.144-3.5 0-3.387 2.563-6.662 6.931-6.662 3.769 0 6.413 2.569 6.413 6.244 0 4.15-2.094 7.025-4.825 7.025-1.506 0-2.631-1.244-2.275-2.775 0.431-1.825 1.269-3.794 1.269-5.113 0-3.313-4.719-2.856-4.719 1.563 0 1.356 0.456 2.281 0.456 2.281-1.963 8.3-2.256 8.406-1.85 12.037l0.137 0.050h-5.537c-1.656 0-3-1.344-3-3v-22c0-1.656 1.344-3 3-3h22c1.656 0 3 1.344 3 3z"></path>
</symbol>
<symbol id="icon-rss-solid" viewBox="0 0 28 32">
<path d="M8.005 25.997c0 2.211-1.792 4.003-4.003 4.003s-4.003-1.792-4.003-4.003 1.792-4.003 4.003-4.003 4.003 1.792 4.003 4.003zM18.984 28.951c-0.522-9.662-8.262-17.412-17.934-17.934-0.571-0.031-1.049 0.428-1.049 1v3.004c0 0.526 0.406 0.967 0.93 1.001 6.989 0.455 12.592 6.044 13.048 13.048 0.034 0.525 0.475 0.93 1.001 0.93h3.004c0.572 0 1.031-0.478 1-1.049zM27.999 28.969c-0.525-14.614-12.283-26.441-26.968-26.968-0.564-0.020-1.031 0.436-1.031 1v3.004c0 0.539 0.427 0.978 0.966 1 11.949 0.49 21.539 10.082 22.029 22.029 0.022 0.539 0.461 0.966 1 0.966h3.004c0.565-0 1.021-0.467 1-1.032z"></path>
</symbol>
<symbol id="icon-stumbleupon" viewBox="0 0 32 32">
<path d="M31.431 16.625v4.356c0 3.881-3.144 7.025-7.025 7.025-3.863 0-7.025-3.113-7.025-6.956v-4.387l2.144 1 3.194-0.95v4.412c0 0.919 0.75 1.656 1.669 1.656s1.675-0.738 1.675-1.656v-4.5h5.369zM17.387 12.988l2.144 1 3.194-0.95v-2.225c0-3.781-3.194-6.813-7.006-6.813-3.8 0-7.006 3.013-7.006 6.763v10.15c0 0.931-0.75 1.669-1.669 1.669s-1.669-0.738-1.669-1.669v-4.288h-5.375v4.356c0 3.875 3.144 7.019 7.025 7.019 3.85 0 7.025-3.094 7.025-6.925v-10.019c0-0.919 0.75-1.669 1.669-1.669s1.669 0.75 1.669 1.669v1.931z"></path>
</symbol>
<symbol id="icon-twitter" viewBox="0 0 32 32">
<path d="M28.711 9.482c0.020 0.284 0.020 0.569 0.020 0.853 0 8.67-6.599 18.66-18.66 18.66-3.716 0-7.168-1.076-10.071-2.944 0.528 0.061 1.036 0.081 1.584 0.081 3.066 0 5.888-1.035 8.142-2.802-2.883-0.061-5.3-1.949-6.132-4.548 0.406 0.061 0.812 0.102 1.239 0.102 0.589 0 1.178-0.081 1.726-0.223-3.005-0.609-5.259-3.249-5.259-6.437v-0.081c0.873 0.487 1.888 0.792 2.964 0.832-1.766-1.178-2.924-3.188-2.924-5.462 0-1.218 0.325-2.335 0.893-3.31 3.228 3.98 8.081 6.579 13.523 6.863-0.101-0.487-0.162-0.995-0.162-1.502 0-3.614 2.924-6.558 6.558-6.558 1.888 0 3.594 0.792 4.792 2.071 1.482-0.284 2.904-0.832 4.162-1.584-0.487 1.523-1.523 2.802-2.883 3.614 1.32-0.142 2.599-0.508 3.777-1.015-0.893 1.299-2.010 2.457-3.289 3.391z"></path>
</symbol>
</defs>
</svg>
